<svg width="1366" height="870" viewBox="0 0 1366 870" fill="none" xmlns="http://www.w3.org/2000/svg">
<rect width="1366" height="768" fill="#8A95D3"/>
<path d="M254 768C254 824.333 200.946 870 135.5 870C70.0543 870 17 824.333 17 768C17 711.667 70.0543 666 135.5 666C200.946 666 254 711.667 254 768ZM46.625 768C46.625 810.25 86.4157 844.5 135.5 844.5C184.584 844.5 224.375 810.25 224.375 768C224.375 725.75 184.584 691.5 135.5 691.5C86.4157 691.5 46.625 725.75 46.625 768Z" fill="url(#paint0_linear)"/>
<path d="M1252 186.5C1252 214.39 1227.38 237 1197 237C1166.62 237 1142 214.39 1142 186.5C1142 158.61 1166.62 136 1197 136C1227.38 136 1252 158.61 1252 186.5ZM1155.75 186.5C1155.75 207.418 1174.22 224.375 1197 224.375C1219.78 224.375 1238.25 207.418 1238.25 186.5C1238.25 165.582 1219.78 148.625 1197 148.625C1174.22 148.625 1155.75 165.582 1155.75 186.5Z" fill="url(#paint1_linear)"/>
<path d="M0 0V115V131.5C0 131.5 60.0404 95.1852 102 80C210.93 40.5782 292.972 118.786 398.5 71C531 11 630.629 202.188 767.5 148C849.617 115.49 938.5 0 938.5 0H0Z" fill="#9EA7DE"/>
<path fill-rule="evenodd" clip-rule="evenodd" d="M92.7925 617.5L82.8962 600L73 617.5H92.7925ZM90.7903 616.217L82.8956 602.333L75.0008 616.217H90.7903Z" fill="white"/>
<path d="M1077 574.973C1077 574.973 1080.61 568.035 1084.77 568.014C1088.94 567.992 1088.45 575.225 1092.62 574.973C1096.53 574.737 1095.64 568.366 1099.54 568.014C1103.84 567.625 1103.61 575.518 1107.9 574.973C1111.65 574.496 1110.54 568.32 1114.31 568.014C1118.4 567.682 1117.82 575.356 1121.91 574.973C1125.63 574.624 1124.43 568.343 1128.16 568.014C1132.22 567.655 1131.59 575.139 1135.67 574.973C1138.67 574.851 1142 570.765 1142 570.765" stroke="white" stroke-width="3"/>
<path d="M1224 371C1224 378.18 1230.27 384 1238 384C1245.73 384 1252 378.18 1252 371C1252 363.82 1245.73 358 1238 358C1230.27 358 1224 363.82 1224 371ZM1247.8 371C1247.8 376.026 1243.41 380.1 1238 380.1C1232.59 380.1 1228.2 376.026 1228.2 371C1228.2 365.974 1232.59 361.9 1238 361.9C1243.41 361.9 1247.8 365.974 1247.8 371Z" fill="white"/>
<path d="M424 128C424 132.418 427.806 136 432.5 136C437.194 136 441 132.418 441 128C441 123.582 437.194 120 432.5 120C427.806 120 424 123.582 424 128ZM438.025 128C438.025 130.872 435.551 133.2 432.5 133.2C429.449 133.2 426.975 130.872 426.975 128C426.975 125.128 429.449 122.8 432.5 122.8C435.551 122.8 438.025 125.128 438.025 128Z" fill="white"/>
<rect width="3.15203" height="25.1739" rx="1.57602" transform="matrix(-0.590464 -0.807064 0.720534 -0.693419 848.861 509)" fill="white"/>
<rect width="3.15203" height="25.1739" rx="1.57602" transform="matrix(-0.590464 0.807064 -0.720534 -0.693419 867 506.456)" fill="white"/>
<path opacity="0.7" d="M703.938 137.181C658.572 102.488 623 0 623 0H990C990 0 955.5 51.5 946.133 107.73C930.477 201.715 744.704 168.357 703.938 137.181Z" fill="#96A1E1"/>
<path d="M629.5 688.418C596.225 708.902 559 759.418 559 759.418V768.418L1366 764.418L1364 663.918C1332.33 675.918 1306.49 691.378 1267 699.918C1193.11 715.895 1109.75 708.038 1036 696.418C986.874 688.678 961.106 675.281 912 667.418C819.959 652.68 713.334 636.808 629.5 688.418Z" fill="#9EA6D7"/>
<path d="M1242.5 637C1212.07 715.259 1072 768 1072 768H1365.5V637C1365.5 637 1267 574 1242.5 637Z" fill="#ACB6F1"/>
<circle cx="1292.44" cy="29.4444" r="2.44444" fill="#E5E5E5"/>
<circle cx="1292.44" cy="29.4444" r="2.44444" fill="white"/>
<circle cx="1305.48" cy="29.4444" r="2.44444" fill="#E5E5E5"/>
<circle cx="1305.48" cy="29.4444" r="2.44444" fill="white"/>
<circle cx="1318.52" cy="29.4444" r="2.44444" fill="#E5E5E5"/>
<circle cx="1318.52" cy="29.4444" r="2.44444" fill="white"/>
<circle cx="1331.56" cy="29.4444" r="2.44444" fill="#E5E5E5"/>
<circle cx="1331.56" cy="29.4444" r="2.44444" fill="white"/>
<circle cx="1292.44" cy="39.2222" r="2.44444" fill="#E5E5E5"/>
<circle cx="1292.44" cy="39.2222" r="2.44444" fill="white"/>
<circle cx="1305.48" cy="39.2222" r="2.44444" fill="#E5E5E5"/>
<circle cx="1305.48" cy="39.2222" r="2.44444" fill="white"/>
<circle cx="1318.52" cy="39.2222" r="2.44444" fill="#E5E5E5"/>
<circle cx="1318.52" cy="39.2222" r="2.44444" fill="white"/>
<circle cx="1331.56" cy="39.2222" r="2.44444" fill="#E5E5E5"/>
<circle cx="1331.56" cy="39.2222" r="2.44444" fill="white"/>
<circle cx="1292.44" cy="49" r="2.44444" fill="#E5E5E5"/>
<circle cx="1292.44" cy="49" r="2.44444" fill="white"/>
<circle cx="1305.48" cy="49" r="2.44444" fill="#E5E5E5"/>
<circle cx="1305.48" cy="49" r="2.44444" fill="white"/>
<circle cx="1318.52" cy="49" r="2.44444" fill="#E5E5E5"/>
<circle cx="1318.52" cy="49" r="2.44444" fill="white"/>
<circle cx="1331.56" cy="49" r="2.44444" fill="#E5E5E5"/>
<circle cx="1331.56" cy="49" r="2.44444" fill="white"/>
<circle cx="1292.44" cy="58.7778" r="2.44444" fill="#E5E5E5"/>
<circle cx="1292.44" cy="58.7778" r="2.44444" fill="white"/>
<circle cx="1305.48" cy="58.7778" r="2.44444" fill="#E5E5E5"/>
<circle cx="1305.48" cy="58.7778" r="2.44444" fill="white"/>
<circle cx="1318.52" cy="58.7778" r="2.44444" fill="#E5E5E5"/>
<circle cx="1318.52" cy="58.7778" r="2.44444" fill="white"/>
<circle cx="1331.56" cy="58.7778" r="2.44444" fill="#E5E5E5"/>
<circle cx="1331.56" cy="58.7778" r="2.44444" fill="white"/>
<circle cx="1292.44" cy="68.5555" r="2.44444" fill="#E5E5E5"/>
<circle cx="1292.44" cy="68.5555" r="2.44444" fill="white"/>
<circle cx="1305.48" cy="68.5555" r="2.44444" fill="#E5E5E5"/>
<circle cx="1305.48" cy="68.5555" r="2.44444" fill="white"/>
<circle cx="1318.52" cy="68.5555" r="2.44444" fill="#E5E5E5"/>
<circle cx="1318.52" cy="68.5555" r="2.44444" fill="white"/>
<circle cx="1331.56" cy="68.5555" r="2.44444" fill="#E5E5E5"/>
<circle cx="1331.56" cy="68.5555" r="2.44444" fill="white"/>
<defs>
<linearGradient id="paint0_linear" x1="135.5" y1="666" x2="141.505" y2="831.177" gradientUnits="userSpaceOnUse">
<stop stop-color="#ACB6F1"/>
<stop offset="1" stop-color="#C4C4C4" stop-opacity="0"/>
</linearGradient>
<linearGradient id="paint1_linear" x1="1197" y1="136" x2="1200.17" y2="217.764" gradientUnits="userSpaceOnUse">
<stop stop-color="#ACB6F1"/>
<stop offset="1" stop-color="#C4C4C4" stop-opacity="0"/>
</linearGradient>
</defs>
</svg>
