<svg width="1223" height="761" viewBox="0 0 1223 761" fill="none" xmlns="http://www.w3.org/2000/svg">
<g clip-path="url(#clip0)">
<path d="M1222.52 0.450012V760.81H0.640625V0.450012H1222.52Z" fill="white"/>
<path d="M1222.52 0.450012V425.31L1198.1 416.49L1000.38 294.67L703.801 255.83L477.841 206.41C369.521 161.89 303.611 139.52 280.121 139.31C256.611 139.11 209.531 146.18 138.881 160.51C52.9606 172.27 8.24062 178.15 4.72062 178.15C3.98062 178.15 2.56062 178.41 0.640625 178.85V0.450012H1222.52Z" fill="url(#paint0_linear)"/>
<path d="M1222.52 329.39V760.81H705.781C710.381 759.05 715.021 757.45 719.521 755.89C772.601 737.61 824.701 711.55 861.941 669.55C870.401 659.99 878.461 648.09 876.421 635.49C873.641 618.41 854.501 609.85 837.781 605.45C795.861 594.43 751.741 590.67 712.081 573.25C672.401 555.81 636.501 519.53 637.161 476.21C637.621 444.81 657.001 415.65 655.601 384.29C654.181 353.17 632.181 326.25 606.241 309.01C578.281 290.43 544.701 280.45 511.121 280.73C482.061 280.97 451.921 288.53 424.561 278.69C396.741 268.67 378.301 243.01 358.561 220.97C338.841 198.93 311.901 178.03 282.701 182.81C244.381 189.07 224.601 235.39 187.661 247.39C156.641 257.45 123.841 240.49 96.1806 223.21C85.0206 216.23 73.6806 208.97 60.9006 205.83C42.4006 201.27 22.8006 205.79 5.18062 213.01C3.66062 213.63 2.14062 214.29 0.640625 214.95V126.27C34.6406 122.47 70.7206 137.79 103.681 127.45C144.381 114.69 165.041 68.15 202.901 48.49C239.201 29.63 283.421 39.13 322.101 52.41C426.781 88.37 522.881 148.85 630.801 173.31C650.081 177.67 672.021 180.37 688.141 168.93C703.561 157.97 708.701 137.19 708.101 118.27C707.501 99.37 702.361 80.79 702.201 61.87C702.141 53.27 703.421 43.93 709.501 37.83C716.021 31.29 726.141 30.31 735.381 30.17C849.021 28.37 951.121 95.25 1043.34 161.69C1098.06 201.13 1152.78 241.85 1196 293.61C1205.48 304.97 1214.4 316.93 1222.52 329.39Z" fill="url(#paint1_linear)"/>
<g style="mix-blend-mode:multiply" opacity="0.6">
<g style="mix-blend-mode:multiply" opacity="0.2">
<g style="mix-blend-mode:multiply" opacity="0.2">
<g style="mix-blend-mode:multiply" opacity="0.2">
<path style="mix-blend-mode:multiply" opacity="0.2" d="M128.36 315.78L130.88 608.21L409.76 605.81L407.24 313.38L128.36 315.78Z" fill="url(#paint2_linear)"/>
</g>
</g>
</g>
<g style="mix-blend-mode:multiply" opacity="0.2">
<g style="mix-blend-mode:multiply" opacity="0.2">
<path style="mix-blend-mode:multiply" opacity="0.2" d="M918.39 -104.49L819.82 170.84L1082.39 264.84L1180.96 -10.49L918.39 -104.49Z" fill="url(#paint3_linear)"/>
</g>
</g>
<g style="mix-blend-mode:multiply" opacity="0.2">
<g style="mix-blend-mode:multiply" opacity="0.2">
<path style="mix-blend-mode:multiply" opacity="0.2" d="M1080.7 61.34L1147.12 250.88L1327.88 187.54L1261.46 -2L1080.7 61.34Z" fill="url(#paint4_linear)"/>
</g>
</g>
<g style="mix-blend-mode:multiply" opacity="0.2">
<g style="mix-blend-mode:multiply" opacity="0.2">
<path style="mix-blend-mode:multiply" opacity="0.2" d="M869.801 462.26L925.261 790.43L1242.24 736.86L1186.77 408.69L869.801 462.26Z" fill="url(#paint5_linear)"/>
</g>
</g>
<g style="mix-blend-mode:multiply" opacity="0.2">
<g style="mix-blend-mode:multiply" opacity="0.2">
<path style="mix-blend-mode:multiply" opacity="0.2" d="M696.49 632.65L860.6 706.48L931.91 547.96L767.79 474.14L696.49 632.65Z" fill="url(#paint6_linear)"/>
</g>
</g>
<g style="mix-blend-mode:multiply" opacity="0.2">
<g style="mix-blend-mode:multiply" opacity="0.2">
<path style="mix-blend-mode:multiply" opacity="0.2" d="M403.18 682.64L642.14 514.06L481.37 286.17L242.41 454.76L403.18 682.64Z" fill="url(#paint7_linear)"/>
</g>
</g>
<path style="mix-blend-mode:multiply" opacity="0.2" d="M1185.05 606.07L1086.47 330.74L823.91 424.75L922.49 700.08L1185.05 606.07Z" fill="url(#paint8_linear)"/>
<path style="mix-blend-mode:multiply" opacity="0.2" d="M287.961 213.72L189.371 -61.61L-73.1895 32.4L25.3905 307.73L287.961 213.72Z" fill="url(#paint9_linear)"/>
<path style="mix-blend-mode:multiply" opacity="0.2" d="M516.921 147.99L274.411 -15.46L118.541 215.8L361.041 379.25L516.921 147.99Z" fill="url(#paint10_linear)"/>
<path style="mix-blend-mode:multiply" opacity="0.2" d="M793.85 215.23L695.27 -60.1L432.7 33.91L531.29 309.24L793.85 215.23Z" fill="url(#paint11_linear)"/>
<path style="mix-blend-mode:multiply" opacity="0.2" d="M901.281 363.57L980.451 189.97L717.881 283.98L816.461 559.31L901.281 363.57Z" fill="url(#paint12_linear)"/>
<g style="mix-blend-mode:multiply" opacity="0.2">
<g style="mix-blend-mode:multiply" opacity="0.2">
<g style="mix-blend-mode:multiply" opacity="0.2">
<path style="mix-blend-mode:multiply" opacity="0.2" d="M807.391 84.61L898.251 6.55997L785.231 -33.11L672.211 -72.77L694.371 44.94L716.521 162.65L807.391 84.61Z" fill="url(#paint13_linear)"/>
</g>
</g>
</g>
<g style="mix-blend-mode:multiply" opacity="0.2">
<g style="mix-blend-mode:multiply" opacity="0.2">
<g style="mix-blend-mode:multiply" opacity="0.2">
<path style="mix-blend-mode:multiply" opacity="0.2" d="M515.841 161.25L551.321 78.52L461.931 89.15L372.551 99.79L426.451 171.88L480.361 243.97L515.841 161.25Z" fill="url(#paint14_linear)"/>
</g>
</g>
</g>
<g style="mix-blend-mode:multiply" opacity="0.2">
<g style="mix-blend-mode:multiply" opacity="0.2">
<path style="mix-blend-mode:multiply" opacity="0.2" d="M1148.02 303.44L1084.21 366.93L1171.1 390.45L1257.99 413.97L1234.91 326.96L1211.84 239.96L1148.02 303.44Z" fill="url(#paint15_linear)"/>
</g>
</g>
<g style="mix-blend-mode:multiply" opacity="0.2">
<g style="mix-blend-mode:multiply" opacity="0.2">
<path style="mix-blend-mode:multiply" opacity="0.2" d="M342.92 58.79L279.11 122.28L366 145.8L452.89 169.32L429.81 82.31L406.74 -4.70001L342.92 58.79Z" fill="url(#paint16_linear)"/>
</g>
</g>
<g style="mix-blend-mode:multiply" opacity="0.2">
<g style="mix-blend-mode:multiply" opacity="0.2">
<g style="mix-blend-mode:multiply" opacity="0.2">
<path style="mix-blend-mode:multiply" opacity="0.2" d="M751.441 324.46L667.711 206.58L553.851 287.45L637.581 405.33L751.441 324.46Z" fill="url(#paint17_linear)"/>
</g>
</g>
</g>
</g>
</g>
<defs>
<linearGradient id="paint0_linear" x1="102.042" y1="-381.461" x2="1672" y2="-97.9998" gradientUnits="userSpaceOnUse">
<stop stop-color="#7EA2D5"/>
<stop offset="1" stop-color="#4C58A4"/>
</linearGradient>
<linearGradient id="paint1_linear" x1="0.637625" y1="26.175" x2="1222.52" y2="26.175" gradientUnits="userSpaceOnUse">
<stop stop-color="#8894D2"/>
<stop offset="1" stop-color="#8A95D3"/>
</linearGradient>
<linearGradient id="paint2_linear" x1="543.942" y1="476.214" x2="236.639" y2="786.023" gradientUnits="userSpaceOnUse">
<stop stop-color="#2A47A5"/>
<stop offset="1" stop-color="#13204A"/>
</linearGradient>
<linearGradient id="paint3_linear" x1="1281.14" y1="123.249" x2="1051.4" y2="-199.243" gradientUnits="userSpaceOnUse">
<stop stop-color="#5762A9"/>
<stop offset="1" stop-color="#13204A"/>
</linearGradient>
<linearGradient id="paint4_linear" x1="1012.58" y1="198.317" x2="1139.25" y2="-74.01" gradientUnits="userSpaceOnUse">
<stop stop-color="#5762A9"/>
<stop offset="1" stop-color="#13204A"/>
</linearGradient>
<linearGradient id="paint5_linear" x1="1141.24" y1="261.046" x2="622.429" y2="634.879" gradientUnits="userSpaceOnUse">
<stop stop-color="#2A47A5"/>
<stop offset="1" stop-color="#13204A"/>
</linearGradient>
<linearGradient id="paint6_linear" x1="642.357" y1="558.651" x2="776.668" y2="763.03" gradientUnits="userSpaceOnUse">
<stop stop-color="#2A47A5"/>
<stop offset="1" stop-color="#13204A"/>
</linearGradient>
<linearGradient id="paint7_linear" x1="405.481" y1="685.912" x2="644.444" y2="517.328" gradientUnits="userSpaceOnUse">
<stop stop-color="#2A47A5"/>
<stop offset="1" stop-color="#13204A"/>
</linearGradient>
<linearGradient id="paint8_linear" x1="1188.82" y1="604.722" x2="1090.24" y2="329.394" gradientUnits="userSpaceOnUse">
<stop stop-color="#2A47A5"/>
<stop offset="1" stop-color="#13204A"/>
</linearGradient>
<linearGradient id="paint9_linear" x1="291.723" y1="212.372" x2="193.142" y2="-62.955" gradientUnits="userSpaceOnUse">
<stop stop-color="#2A47A5"/>
<stop offset="1" stop-color="#13204A"/>
</linearGradient>
<linearGradient id="paint10_linear" x1="519.154" y1="144.669" x2="276.65" y2="-18.78" gradientUnits="userSpaceOnUse">
<stop stop-color="#8697D2"/>
<stop offset="1" stop-color="#13204A"/>
</linearGradient>
<linearGradient id="paint11_linear" x1="1297.6" y1="-6847.98" x2="1229.89" y2="-6311.71" gradientUnits="userSpaceOnUse">
<stop stop-color="#2A47A5"/>
<stop offset="1" stop-color="#5762A9"/>
</linearGradient>
<linearGradient id="paint12_linear" x1="1582.78" y1="-6597.91" x2="1515.07" y2="-6061.64" gradientUnits="userSpaceOnUse">
<stop stop-color="#2A47A5"/>
<stop offset="1" stop-color="#13204A"/>
</linearGradient>
<linearGradient id="paint13_linear" x1="863.196" y1="-127.021" x2="654.86" y2="-72.354" gradientUnits="userSpaceOnUse">
<stop stop-color="#2A47A5"/>
<stop offset="1" stop-color="#13204A"/>
</linearGradient>
<linearGradient id="paint14_linear" x1="482.814" y1="-0.766986" x2="360.334" y2="105.061" gradientUnits="userSpaceOnUse">
<stop stop-color="#2A47A5"/>
<stop offset="1" stop-color="#13204A"/>
</linearGradient>
<linearGradient id="paint15_linear" x1="1243.8" y1="513.856" x2="1037.54" y2="330.88" gradientUnits="userSpaceOnUse">
<stop stop-color="#2A47A5"/>
<stop offset="1" stop-color="#13204A"/>
</linearGradient>
<linearGradient id="paint16_linear" x1="438.699" y1="269.201" x2="232.445" y2="86.224" gradientUnits="userSpaceOnUse">
<stop stop-color="#849AD3"/>
<stop offset="1" stop-color="#13204A"/>
</linearGradient>
<linearGradient id="paint17_linear" x1="755.201" y1="321.792" x2="671.474" y2="203.906" gradientUnits="userSpaceOnUse">
<stop stop-color="#2A47A5"/>
<stop offset="1" stop-color="#13204A"/>
</linearGradient>
<clipPath id="clip0">
<rect width="1223" height="761" fill="white"/>
</clipPath>
</defs>
</svg>
