<svg width="438" height="438" viewBox="0 0 438 438" fill="none" xmlns="http://www.w3.org/2000/svg">
<path d="M254.56 218.88C254.56 238.59 238.58 254.57 218.87 254.57C199.16 254.57 183.18 238.59 183.18 218.88C183.18 199.16 199.16 183.19 218.87 183.19C238.58 183.19 254.56 199.16 254.56 218.88Z" fill="url(#paint0_linear)"/>
<path fill-rule="evenodd" clip-rule="evenodd" d="M312.52 218.88C312.52 270.59 270.59 312.52 218.87 312.52C167.15 312.52 125.23 270.59 125.23 218.88C125.23 167.16 167.15 125.23 218.87 125.23C270.59 125.23 312.52 167.16 312.52 218.88ZM158.97 218.88C158.97 251.91 185.84 278.78 218.87 278.78C251.9 278.78 278.78 251.91 278.78 218.88C278.78 185.85 251.9 158.97 218.87 158.97C185.84 158.97 158.97 185.85 158.97 218.88Z" fill="url(#paint1_linear)"/>
<path fill-rule="evenodd" clip-rule="evenodd" d="M373.61 218.88C373.61 304.34 304.33 373.61 218.87 373.61C133.41 373.61 64.13 304.34 64.13 218.88C64.13 133.42 133.41 64.14 218.87 64.14C304.33 64.14 373.61 133.42 373.61 218.88ZM133.31 133.32C110.46 156.17 97.87 186.56 97.87 218.88C97.87 251.2 110.46 281.58 133.31 304.43C156.17 327.29 186.55 339.87 218.87 339.87C251.19 339.87 281.58 327.29 304.43 304.43C327.28 281.58 339.87 251.2 339.87 218.88C339.87 186.56 327.28 156.17 304.43 133.32C281.58 110.47 251.19 97.88 218.87 97.88C186.55 97.88 156.17 110.47 133.31 133.32Z" fill="url(#paint2_linear)"/>
<path fill-rule="evenodd" clip-rule="evenodd" d="M437.75 218.88C437.75 339.76 339.75 437.75 218.87 437.75C97.99 437.75 0 339.76 0 218.88C0 97.99 97.99 0 218.87 0C339.75 0 437.75 97.99 437.75 218.88ZM87.96 87.96C52.99 122.93 33.74 169.42 33.74 218.88C33.74 268.33 52.99 314.82 87.96 349.79C122.93 384.75 169.42 404.01 218.87 404.01C268.32 404.01 314.82 384.75 349.78 349.79C384.75 314.82 404.01 268.33 404.01 218.88C404.01 169.42 384.75 122.93 349.78 87.96C314.82 53 268.32 33.74 218.87 33.74C169.42 33.74 122.93 53 87.96 87.96Z" fill="url(#paint3_linear)"/>
<defs>
<linearGradient id="paint0_linear" x1="-233.5" y1="325.5" x2="257" y2="-41" gradientUnits="userSpaceOnUse">
<stop stop-color="#8894D2"/>
<stop offset="1" stop-color="#2A3C79"/>
</linearGradient>
<linearGradient id="paint1_linear" x1="-233.5" y1="325.5" x2="257" y2="-41" gradientUnits="userSpaceOnUse">
<stop stop-color="#8894D2"/>
<stop offset="1" stop-color="#2A3C79"/>
</linearGradient>
<linearGradient id="paint2_linear" x1="-233.5" y1="325.5" x2="257" y2="-41" gradientUnits="userSpaceOnUse">
<stop stop-color="#8894D2"/>
<stop offset="1" stop-color="#2A3C79"/>
</linearGradient>
<linearGradient id="paint3_linear" x1="-233.5" y1="325.5" x2="257" y2="-41" gradientUnits="userSpaceOnUse">
<stop stop-color="#8894D2"/>
<stop offset="1" stop-color="#2A3C79"/>
</linearGradient>
</defs>
</svg>
