<svg width="141" height="141" viewBox="0 0 141 141" fill="none" xmlns="http://www.w3.org/2000/svg">
<path d="M132.8 39.1604C132.629 38.2566 132.46 37.3917 132.303 36.6163C132.773 37.6497 133.298 38.8599 133.82 40.1295C138.828 52.3121 141.159 64.7048 140.339 74.6164C138.588 95.7598 129.97 113.207 115.678 124.652C111.765 127.785 108.232 130.009 103.521 132.302C91.6898 138.06 78.3946 140.51 64.9734 139.403C48.4286 138.037 32.7278 131.192 21.751 120.578C11.7078 110.868 4.21413 95.0619 1.56904 77.9089C-0.866166 62.1172 0.872624 47.997 6.64493 36.3671C7.32889 34.9891 8.50576 32.9759 9.54378 31.332C9.85308 30.8422 10.1481 30.3882 10.4123 29.9961C10.355 30.2757 10.2905 30.5753 10.2207 30.8852L10.7084 30.9952L10.2207 30.8852C6.08465 49.2304 5.53708 58.4516 7.94137 70.16C10.83 84.2273 17.1127 96.1525 26.1493 104.659C32.2957 110.445 39.269 114.627 47.3928 117.401C49.1455 117.999 51.7468 118.726 53.9387 119.27C55.0353 119.542 56.0369 119.77 56.7843 119.915C57.1564 119.987 57.4754 120.04 57.7151 120.066C57.833 120.079 57.9471 120.088 58.0449 120.085C58.0929 120.084 58.1537 120.081 58.2166 120.067C58.2606 120.058 58.3962 120.028 58.5112 119.913C58.6965 119.728 58.6669 119.501 58.6427 119.412C58.6187 119.324 58.5765 119.259 58.5574 119.232C58.514 119.169 58.4599 119.113 58.419 119.074C58.3301 118.988 58.2058 118.884 58.064 118.773C57.776 118.549 57.371 118.26 56.9174 117.959C52.5152 115.043 49.0536 110.117 47.4107 104.384C46.9773 102.871 46.7527 100.643 46.7527 98.3852C46.7527 96.1272 46.9773 93.8992 47.4107 92.3866C49.8779 83.7764 56.0568 77.5518 64.3501 75.2906C65.8545 74.8804 68.1717 74.6538 70.5069 74.6328C72.8434 74.6118 75.13 74.7973 76.5754 75.1793C85.1137 77.4362 91.5215 83.905 93.8603 92.6485C94.2572 94.1322 94.4615 96.2366 94.4606 98.3709C94.4597 100.505 94.2536 102.619 93.855 104.123C92.4397 109.461 89.6456 113.764 85.258 117.354L83.9907 118.391L84.4178 119.265L86.3893 118.818C91.7887 117.594 99.3989 114.447 104.868 111.183C110.456 107.849 117.043 102.312 121.311 97.3614C132.835 83.9951 136.918 68.2062 134.23 47.6648C133.961 45.6121 133.368 42.1617 132.8 39.1604Z" fill="#4C58A4" stroke="#4C58A4"/>
<path d="M14.4649 46.4321L14.9435 46.2873C16.5028 51.4411 26.7505 82.7809 27.8003 85.6082C27.9466 86.0024 28.0983 86.3544 28.2224 86.602C28.2473 86.6518 28.2702 86.6954 28.2908 86.733C28.4312 86.7165 28.6234 86.6935 28.8625 86.6644C29.3847 86.601 30.128 86.5092 31.0377 86.3959C32.8569 86.1694 35.3402 85.8571 38.0483 85.5137L47.7117 84.2883L48.799 83.0724C49.6314 82.1418 50.3002 81.354 50.7423 80.7913C50.7884 80.7326 50.8317 80.6768 50.8722 80.624C50.3488 80.6319 49.6093 80.6479 48.7045 80.6708C46.8487 80.7175 44.3031 80.7928 41.5158 80.8851C38.7272 80.9775 36.1885 81.0571 34.3445 81.1109C33.4227 81.1378 32.6739 81.1582 32.1541 81.1706C31.8944 81.1768 31.6906 81.181 31.5505 81.183C31.4809 81.1839 31.4244 81.1844 31.3838 81.1842C31.3644 81.1841 31.3435 81.1839 31.325 81.1831C31.3172 81.1828 31.3006 81.1821 31.2816 81.18C31.2738 81.1792 31.2515 81.1768 31.2242 81.1707C31.2115 81.1679 31.1827 81.1612 31.1478 81.1475C31.1351 81.1425 31.0215 81.1015 30.9327 80.9848L14.4649 46.4321ZM14.4649 46.4321L14.9435 46.2873C14.5122 44.8617 14.1298 43.5037 13.8615 42.4654C13.7271 41.9456 13.6224 41.5102 13.5545 41.1883C13.5204 41.0268 13.4968 40.8996 13.4832 40.8074C13.4765 40.7623 13.4736 40.734 13.4723 40.7189C13.4769 40.7075 13.486 40.6886 13.503 40.6623C13.5358 40.6115 13.5888 40.5474 13.6666 40.4748C13.8227 40.3289 14.0508 40.1743 14.3296 40.0433L14.117 39.5907L14.3296 40.0433C14.9149 39.7683 16.0247 39.4443 17.1968 39.1873C18.3677 38.9305 19.5256 38.7571 20.1991 38.7571H20.885L21.3735 40.3083L21.3735 40.3083M14.4649 46.4321L21.3735 40.3083M21.3735 40.3083C22.5436 44.0236 25.5941 56.8912 29.0875 72.8637M21.3735 40.3083L29.0875 72.8637M29.0875 72.8637C29.5618 75.0325 29.9965 77.0088 30.3146 78.4458M29.0875 72.8637L30.3146 78.4458M30.3146 78.4458C30.4736 79.1642 30.6037 79.7482 30.695 80.1542M30.3146 78.4458L30.695 80.1542M30.695 80.1542C30.7406 80.357 30.7768 80.5163 30.8022 80.6259M30.695 80.1542L30.8022 80.6259M30.8022 80.6259C30.8148 80.6804 30.8251 80.7242 30.8328 80.7555M30.8022 80.6259L30.8328 80.7555M30.8328 80.7555C30.8365 80.7707 30.8402 80.7858 30.8437 80.7986M30.8328 80.7555L30.8437 80.7986M30.8437 80.7986C30.8452 80.8044 30.8479 80.8143 30.8513 80.8253M30.8437 80.7986L30.8513 80.8253M30.8513 80.8253C30.8528 80.8302 30.8562 80.8413 30.8612 80.8548M30.8513 80.8253L30.8612 80.8548M30.8612 80.8548C30.8637 80.8613 30.8685 80.8739 30.8755 80.8893M30.8612 80.8548L30.8755 80.8893M30.8755 80.8893C30.8789 80.8968 30.8975 80.9385 30.9323 80.9844L30.8755 80.8893Z" fill="#29A6DE" stroke="#29A6DE"/>
<path d="M110.806 81.2536L111.228 81.2751L111.319 80.8623L112.236 76.7229C114.612 65.9882 116.65 57.0734 118.203 50.5868C118.979 47.3433 119.634 44.7092 120.149 42.7592C120.668 40.7922 121.036 39.5596 121.238 39.0873L120.778 38.8908L121.238 39.0873C121.289 38.968 121.456 38.7739 122.194 38.7571C122.911 38.7407 123.983 38.902 125.506 39.2665L125.622 38.7815L125.506 39.2665C126.692 39.5504 127.544 39.8435 128.089 40.1351C128.676 40.4488 128.728 40.6611 128.728 40.7099C128.728 40.7979 128.684 41.0718 128.561 41.5875C128.443 42.0791 128.267 42.7401 128.033 43.564C127.566 45.2109 126.876 47.492 125.984 50.3381C124.201 56.0293 121.614 63.9677 118.402 73.5842C116.511 79.2461 115.376 82.5828 114.656 84.5088C114.295 85.4757 114.046 86.0656 113.865 86.4116C113.803 86.5317 113.754 86.61 113.72 86.6593C113.689 86.6572 113.65 86.6543 113.603 86.6503C113.447 86.6373 113.232 86.6164 112.962 86.5882C112.424 86.5318 111.679 86.4471 110.781 86.3405C108.985 86.1273 106.581 85.8271 104.004 85.4912C101.426 85.1552 99.0584 84.8397 97.3211 84.6021C96.4522 84.4832 95.7419 84.384 95.2419 84.3115C94.9916 84.2752 94.7958 84.2459 94.6597 84.2242C94.6177 84.2176 94.5825 84.2118 94.5537 84.2069C94.5218 84.1783 94.4799 84.1386 94.4276 84.0868C94.3021 83.9625 94.1359 83.7875 93.9411 83.5756C93.5526 83.1527 93.0646 82.598 92.5891 82.0421C92.1311 81.5067 91.6883 80.9744 91.3601 80.5617C91.6695 80.565 92.0478 80.5711 92.4828 80.5798C93.7395 80.6048 95.4609 80.6506 97.3429 80.708C101.108 80.8227 105.507 80.9835 108.105 81.116L110.806 81.2536ZM113.668 86.7228C113.668 86.7227 113.669 86.7216 113.671 86.7197C113.669 86.7219 113.668 86.7229 113.668 86.7228ZM94.4767 84.1928C94.4683 84.191 94.4701 84.1911 94.4783 84.1932C94.4777 84.1931 94.4772 84.1929 94.4767 84.1928ZM94.5995 84.2457C94.6012 84.2469 94.6021 84.2476 94.6022 84.2476C94.6022 84.2477 94.6013 84.2471 94.5995 84.2457Z" fill="#29A6DE" stroke="#29A6DE"/>
<path d="M101.607 69.5405L101.919 69.4523L101.966 69.1311L102.74 63.7983L102.245 63.7265L102.74 63.7983C104.746 49.9824 108.611 25.8147 109.775 19.8062C109.793 19.7142 109.81 19.6239 109.828 19.5353C110.066 18.3029 110.243 17.3895 110.418 16.7066C110.61 15.9599 110.779 15.5797 110.956 15.3776C111.094 15.2197 111.269 15.1342 111.653 15.1275C112.048 15.1206 112.568 15.198 113.334 15.3122C113.38 15.3191 113.427 15.3261 113.475 15.3332C114.704 15.5161 115.839 15.7922 116.707 16.0977C117.142 16.2507 117.499 16.4072 117.764 16.557C118.045 16.7156 118.166 16.8355 118.201 16.8904C118.218 16.9184 118.279 17.0503 118.259 17.5238C118.239 17.9803 118.15 18.6712 117.96 19.7386C117.582 21.8681 116.82 25.4106 115.492 31.3895C112.205 46.182 112.038 46.91 108.177 63.207C107.883 64.4505 107.619 65.5668 107.382 66.5689C106.335 71.0039 105.815 73.2012 105.492 74.283C105.394 74.6131 105.32 74.8163 105.262 74.9402C105.261 74.9433 105.259 74.9463 105.258 74.9493C105.196 74.9407 105.119 74.9326 105.046 74.9326C104.611 74.9328 100.315 75.2521 95.5322 75.6369C93.1314 75.83 90.949 76.0047 89.3667 76.1307C88.5756 76.1936 87.9347 76.2444 87.4916 76.2791C87.2927 76.2947 87.1339 76.3071 87.0194 76.3159C86.9443 76.2484 86.8449 76.1595 86.7267 76.054C86.4498 75.8069 86.0681 75.4674 85.6484 75.0949L85.3165 75.4689L85.6484 75.0949C85.2772 74.7655 84.9765 74.4608 84.7753 74.2236C84.9882 74.1569 85.2611 74.0741 85.5863 73.9775C86.379 73.742 87.4723 73.4272 88.7396 73.0689C91.2738 72.3524 94.4977 71.4638 97.3911 70.6915C98.7845 70.3195 100.305 69.9078 100.77 69.7768L101.607 69.5405ZM84.5389 73.8955C84.539 73.8956 84.5397 73.8971 84.5407 73.9C84.5394 73.897 84.5389 73.8955 84.5389 73.8955Z" fill="#E83338" stroke="#E83338"/>
<path d="M29.0274 16.2992L29.0274 16.2992C27.8183 16.3726 26.6212 16.5671 25.6443 16.826C25.1557 16.9554 24.7302 17.0989 24.3896 17.2475C24.0408 17.3996 23.8144 17.5428 23.695 17.6576L29.0274 16.2992ZM29.0274 16.2992L31.0377 16.1772L31.1283 16.5379C31.1283 16.538 31.1283 16.538 31.1283 16.538C32.1725 20.6985 35.501 40.9656 38.7914 63.2252C39.0086 64.6947 39.2435 66.0701 39.4474 67.1037C39.5491 67.6195 39.6443 68.056 39.7267 68.3784C39.7677 68.5386 39.8076 68.6789 39.8458 68.7899C39.8647 68.8449 39.8861 68.9011 39.9102 68.9526C39.9279 68.9904 39.9704 69.0787 40.047 69.1553C40.1197 69.228 40.2074 69.2727 40.2405 69.2896L40.241 69.2898C40.2912 69.3154 40.3492 69.3411 40.4098 69.3661C40.532 69.4166 40.6927 69.476 40.8829 69.5421C41.265 69.6749 41.7905 69.8434 42.4191 70.0356C43.6776 70.4204 45.3651 70.9049 47.1787 71.3966C51.2927 72.5121 53.8116 73.2098 55.2995 73.6598C55.9026 73.8422 56.3256 73.9807 56.6129 74.0873C56.6117 74.0884 56.6104 74.0896 56.6092 74.0907C56.3462 74.334 55.9799 74.6479 55.5754 74.9714C55.0668 75.378 54.6616 75.6508 54.3293 75.8182C53.9975 75.9853 53.7669 76.0328 53.5981 76.0259C53.1641 76.0081 49.0777 75.6888 44.5023 75.3144C42.2216 75.1277 40.1294 74.9354 38.5963 74.776M29.0274 16.2992L38.5963 74.776M38.5963 74.776C37.8292 74.6962 37.2053 74.6251 36.769 74.5673M38.5963 74.776L36.769 74.5673M36.769 74.5673C36.5952 74.5443 36.455 74.5239 36.3489 74.5064M36.769 74.5673L36.3489 74.5064M36.3489 74.5064C36.3356 74.4646 36.3207 74.4168 36.3044 74.3629C36.2324 74.1246 36.1382 73.7882 36.0282 73.3764C35.8086 72.5539 35.5297 71.4443 35.2447 70.2471C34.6733 67.8461 33.6466 63.5371 32.9631 60.6715C29.2241 44.9944 24.4294 23.6081 23.7968 19.7942C23.6394 18.8449 23.5729 18.3322 23.5784 18.0182C23.581 17.8704 23.5998 17.8004 23.614 17.7653C23.6256 17.7366 23.6433 17.7072 23.6949 17.6576L36.3489 74.5064ZM57.0319 74.2709C57.0318 74.2709 57.0311 74.2704 57.0297 74.2694C57.0313 74.2704 57.0319 74.2709 57.0319 74.2709ZM36.4105 74.683C36.416 74.6936 36.4163 74.696 36.4115 74.6852C36.4112 74.6846 36.4109 74.6839 36.4105 74.683Z" fill="#E83338" stroke="#E83338"/>
<path d="M69.804 14.1689L70.1388 14.4403L70.4566 14.1491L72.0588 12.6812C78.761 6.54118 87.5137 2.37879 96.5595 1.0309C98.0181 0.813552 100.173 0.637786 101.988 0.553626C102.895 0.511577 103.709 0.492841 104.301 0.50248C104.527 0.506149 104.714 0.513849 104.858 0.524967C104.857 0.544001 104.856 0.563852 104.855 0.58452C104.84 0.854896 104.809 1.2362 104.763 1.70302C104.673 2.63506 104.528 3.88978 104.35 5.24104C103.052 15.0994 100.488 34.2035 99.7191 39.7372C99.5682 40.8236 98.8669 46.0851 98.1607 51.4282C97.4542 56.773 96.7249 62.2151 96.5402 63.5231L96.2432 65.6255L94.674 66.287C93.6737 66.7086 91.3342 67.6444 89.4769 68.3657C87.6162 69.0883 84.4442 70.3429 82.4266 71.1543C80.6164 71.8823 79.7416 72.2271 79.1783 72.3547C78.9152 72.4142 78.7466 72.4192 78.5967 72.3998C78.4341 72.3788 78.2674 72.3266 77.9894 72.23C75.6061 71.4021 71.7439 70.9163 68.9905 71.0916C66.612 71.243 63.4812 72.0486 61.1234 73.1106C61.1041 73.1193 61.0792 73.1233 61.044 73.113C61.0068 73.1021 60.954 73.0732 60.9018 73.0103C60.737 72.8118 60.4506 72.6032 60.1306 72.3994C59.7944 72.1854 59.3662 71.9432 58.871 71.6827C57.8796 71.1612 56.5947 70.5535 55.1857 69.9332C52.3693 68.6934 49.0273 67.3903 46.4955 66.6144C46.3546 66.5713 46.232 66.535 46.1238 66.5031C45.8445 66.4205 45.6615 66.3665 45.5092 66.2949C45.3521 66.221 45.2687 66.1463 45.1875 65.9749C45.0867 65.7621 44.9984 65.4139 44.8951 64.778C44.8196 64.3126 44.7407 63.7267 44.6391 62.9724C44.604 62.7117 44.5662 62.4309 44.5249 62.1281C44.2814 60.3433 43.5245 55.1444 42.8433 50.5751C41.5814 42.1119 41.2389 39.7903 39.3106 26.6376C38.7088 22.5328 37.7039 15.6944 37.0775 11.4411C36.422 6.99026 36.0886 4.60409 36.0102 3.23352C35.9709 2.54684 35.9996 2.16457 36.0615 1.92393C36.1153 1.71473 36.1965 1.59975 36.3406 1.45566C36.6441 1.15222 37.183 0.917744 38.0024 0.80558C38.8118 0.694782 39.8328 0.711885 41.0264 0.852158C43.4117 1.13248 46.4088 1.89507 49.6221 3.01117C56.0521 5.24451 63.2537 8.86018 68.0268 12.7285L69.804 14.1689Z" fill="#FFF112" stroke="#FFF112"/>
<path d="M47.484 34.5424V36.5919H47.5843C47.9036 36.5919 48.135 36.4917 48.2786 36.2912C48.4222 36.0907 48.5137 35.7949 48.5533 35.4038H48.6944V38.04H48.5533C48.5236 37.7528 48.4605 37.5177 48.364 37.3345C48.2699 37.1513 48.1598 37.0288 48.0335 36.9669C47.9073 36.9026 47.7241 36.8704 47.484 36.8704V38.2887C47.484 38.566 47.4952 38.7355 47.5174 38.7974C47.5422 38.8593 47.5867 38.91 47.6511 38.9496C47.7155 38.9892 47.8194 39.009 47.963 39.009H48.2637C48.734 39.009 49.1103 38.9001 49.3925 38.6823C49.6771 38.4645 49.8813 38.1328 50.0051 37.6872H50.1425L49.916 39.2875H45.5645V39.1501H45.7315C45.8776 39.1501 45.9951 39.1241 46.0843 39.0721C46.1486 39.0375 46.1981 38.9781 46.2328 38.8939C46.26 38.8345 46.2736 38.6786 46.2736 38.4261V35.1142C46.2736 34.8865 46.2674 34.7466 46.2551 34.6946C46.2303 34.608 46.1845 34.5412 46.1177 34.4941C46.0236 34.4248 45.8949 34.3902 45.7315 34.3902H45.5645V34.2528H49.7786V35.7417H49.6375C49.5657 35.3778 49.4642 35.1167 49.3331 34.9582C49.2043 34.7998 49.0212 34.6835 48.7835 34.6092C48.6449 34.5647 48.385 34.5424 48.0038 34.5424H47.484Z" fill="#4D57A7"/>
<path d="M53.8446 34.1377L53.8855 35.8159H53.7333C53.6615 35.3951 53.4845 35.0573 53.2023 34.8023C52.9226 34.5449 52.6194 34.4162 52.2926 34.4162C52.0402 34.4162 51.8397 34.4842 51.6912 34.6204C51.5451 34.754 51.4721 34.9087 51.4721 35.0845C51.4721 35.1959 51.4981 35.2949 51.5501 35.3815C51.6218 35.4979 51.7369 35.613 51.8954 35.7268C52.0117 35.8085 52.2803 35.9533 52.7011 36.1612C53.2902 36.4508 53.6875 36.7244 53.8929 36.9818C54.0959 37.2392 54.1974 37.5338 54.1974 37.8655C54.1974 38.2862 54.0328 38.6489 53.7036 38.9533C53.3768 39.2553 52.961 39.4063 52.456 39.4063C52.2976 39.4063 52.1478 39.3902 52.0068 39.358C51.8657 39.3259 51.6887 39.2652 51.4758 39.1761C51.357 39.1266 51.2592 39.1018 51.1825 39.1018C51.1181 39.1018 51.0501 39.1266 50.9783 39.1761C50.9065 39.2256 50.8483 39.3011 50.8038 39.4026H50.6664V37.5016H50.8038C50.9127 38.0362 51.1218 38.4447 51.4313 38.7268C51.7431 39.0065 52.0785 39.1464 52.4375 39.1464C52.7147 39.1464 52.935 39.0709 53.0983 38.9199C53.2642 38.7689 53.3471 38.5932 53.3471 38.3927C53.3471 38.2739 53.3149 38.1588 53.2506 38.0474C53.1887 37.936 53.0934 37.8308 52.9647 37.7318C52.836 37.6303 52.6082 37.4991 52.2815 37.3382C51.8236 37.113 51.4944 36.9211 51.2939 36.7627C51.0934 36.6043 50.9387 36.4273 50.8298 36.2318C50.7233 36.0362 50.6701 35.8209 50.6701 35.5857C50.6701 35.1847 50.8174 34.8431 51.1119 34.561C51.4065 34.2788 51.7778 34.1377 52.2258 34.1377C52.3892 34.1377 52.5476 34.1575 52.7011 34.1971C52.8174 34.2268 52.9585 34.2825 53.1243 34.3642C53.2927 34.4434 53.4102 34.483 53.4771 34.483C53.5414 34.483 53.5922 34.4632 53.6293 34.4236C53.6664 34.384 53.7011 34.2887 53.7333 34.1377H53.8446Z" fill="#4D57A7"/>
<path d="M56.3476 37.0078V38.4038C56.3476 38.6761 56.3636 38.8481 56.3958 38.9199C56.4305 38.9892 56.4899 39.0449 56.574 39.087C56.6607 39.1291 56.8179 39.1501 57.0456 39.1501V39.2875H54.4874V39.1501C54.7201 39.1501 54.8772 39.1291 54.9589 39.087C55.0431 39.0424 55.1013 38.9855 55.1334 38.9162C55.1681 38.8469 55.1854 38.6761 55.1854 38.4038V35.1365C55.1854 34.8642 55.1681 34.6934 55.1334 34.6241C55.1013 34.5523 55.0431 34.4954 54.9589 34.4533C54.8748 34.4112 54.7176 34.3902 54.4874 34.3902V34.2528H56.6817C57.4045 34.2528 57.9231 34.3815 58.2374 34.6389C58.5518 34.8964 58.709 35.2182 58.709 35.6043C58.709 35.931 58.6075 36.2107 58.4045 36.4434C58.2015 36.6761 57.9218 36.8345 57.5654 36.9187C57.3253 36.9781 56.9193 37.0078 56.3476 37.0078ZM56.3476 34.5424V36.7182C56.4292 36.7231 56.4911 36.7256 56.5332 36.7256C56.8352 36.7256 57.0679 36.6365 57.2312 36.4583C57.3946 36.2776 57.4763 35.9991 57.4763 35.6229C57.4763 35.2491 57.3946 34.9756 57.2312 34.8023C57.0679 34.629 56.824 34.5424 56.4998 34.5424H56.3476Z" fill="#4D57A7"/>
<path d="M60.8034 34.5424V36.5919H60.9037C61.223 36.5919 61.4544 36.4917 61.598 36.2912C61.7416 36.0907 61.8332 35.7949 61.8728 35.4038H62.0139V38.04H61.8728C61.8431 37.7528 61.7799 37.5177 61.6834 37.3345C61.5893 37.1513 61.4792 37.0288 61.353 36.9669C61.2267 36.9026 61.0435 36.8704 60.8034 36.8704V38.2887C60.8034 38.566 60.8146 38.7355 60.8369 38.7974C60.8616 38.8593 60.9062 38.91 60.9705 38.9496C61.0349 38.9892 61.1388 39.009 61.2824 39.009H61.5832C62.0535 39.009 62.4297 38.9001 62.7119 38.6823C62.9965 38.4645 63.2007 38.1328 63.3245 37.6872H63.4619L63.2354 39.2875H58.8839V39.1501H59.051C59.197 39.1501 59.3146 39.1241 59.4037 39.0721C59.468 39.0375 59.5175 38.9781 59.5522 38.8939C59.5794 38.8345 59.593 38.6786 59.593 38.4261V35.1142C59.593 34.8865 59.5869 34.7466 59.5745 34.6946C59.5497 34.608 59.5039 34.5412 59.4371 34.4941C59.343 34.4248 59.2143 34.3902 59.051 34.3902H58.8839V34.2528H63.098V35.7417H62.9569C62.8851 35.3778 62.7837 35.1167 62.6525 34.9582C62.5238 34.7998 62.3406 34.6835 62.103 34.6092C61.9643 34.5647 61.7044 34.5424 61.3233 34.5424H60.8034Z" fill="#4D57A7"/>
<path d="M68.6678 34.1377V35.8828H68.523C68.4141 35.4273 68.2111 35.0783 67.9141 34.8357C67.617 34.5931 67.2804 34.4719 66.9042 34.4719C66.5898 34.4719 66.3014 34.5622 66.0391 34.7429C65.7767 34.9236 65.5848 35.16 65.4636 35.4521C65.3076 35.8258 65.2296 36.2417 65.2296 36.6996C65.2296 37.1501 65.2866 37.561 65.4004 37.9323C65.5143 38.3011 65.6925 38.5808 65.9351 38.7714C66.1777 38.9595 66.492 39.0536 66.8782 39.0536C67.195 39.0536 67.4846 38.9843 67.747 38.8457C68.0118 38.707 68.2903 38.4682 68.5824 38.1291V38.5635C68.3002 38.858 68.0057 39.0721 67.6987 39.2058C67.3943 39.337 67.0378 39.4026 66.6294 39.4026C66.0923 39.4026 65.6145 39.2949 65.1962 39.0796C64.7804 38.8642 64.4586 38.5548 64.2309 38.1513C64.0056 37.7479 63.893 37.3184 63.893 36.863C63.893 36.3828 64.018 35.9273 64.268 35.4966C64.5205 35.0659 64.8596 34.7318 65.2853 34.4941C65.7136 34.2565 66.1678 34.1377 66.648 34.1377C67.0019 34.1377 67.3757 34.2144 67.7693 34.3679C67.997 34.457 68.1418 34.5016 68.2037 34.5016C68.2829 34.5016 68.351 34.4731 68.4079 34.4162C68.4673 34.3568 68.5057 34.2639 68.523 34.1377H68.6678Z" fill="#4D57A7"/>
<path d="M71.6608 39.1501V39.2875H69.0284V39.1501H69.1954C69.3415 39.1501 69.4591 39.1241 69.5482 39.0721C69.6125 39.0375 69.662 38.9781 69.6967 38.8939C69.7239 38.8345 69.7375 38.6786 69.7375 38.4261V35.1142C69.7375 34.8568 69.7239 34.6959 69.6967 34.6315C69.6695 34.5672 69.6138 34.5115 69.5296 34.4644C69.4479 34.4149 69.3365 34.3902 69.1954 34.3902H69.0284V34.2528H71.6608V34.3902H71.4937C71.3477 34.3902 71.2301 34.4162 71.141 34.4681C71.0766 34.5028 71.0259 34.5622 70.9888 34.6464C70.9615 34.7058 70.9479 34.8617 70.9479 35.1142V38.4261C70.9479 38.6835 70.9615 38.8444 70.9888 38.9088C71.0185 38.9731 71.0742 39.0301 71.1558 39.0796C71.24 39.1266 71.3526 39.1501 71.4937 39.1501H71.6608Z" fill="#4D57A7"/>
<path d="M74.7912 37.8543H73.0127L72.8011 38.3444C72.7318 38.5078 72.6971 38.6427 72.6971 38.7491C72.6971 38.8902 72.754 38.9942 72.8679 39.061C72.9347 39.1006 73.0993 39.1303 73.3617 39.1501V39.2875H71.6872V39.1501C71.8679 39.1229 72.0164 39.0486 72.1328 38.9273C72.2491 38.8036 72.3927 38.5499 72.5635 38.1662L74.3642 34.1488H74.4348L76.2504 38.2776C76.4236 38.6687 76.566 38.915 76.6774 39.0165C76.7615 39.0932 76.8803 39.1377 77.0338 39.1501V39.2875H74.5981V39.1501H74.6984C74.8939 39.1501 75.0313 39.1229 75.1105 39.0684C75.165 39.0288 75.1922 38.9719 75.1922 38.8976C75.1922 38.8531 75.1848 38.8073 75.1699 38.7603C75.165 38.738 75.1278 38.6452 75.0585 38.4818L74.7912 37.8543ZM74.665 37.5796L73.9149 35.8456L73.1427 37.5796H74.665Z" fill="#4D57A7"/>
<path d="M81.7125 37.5202L81.5231 39.2875H77.0528V39.1501H77.2198C77.3659 39.1501 77.4835 39.1241 77.5726 39.0721C77.6369 39.0375 77.6864 38.9781 77.7211 38.8939C77.7483 38.8345 77.7619 38.6786 77.7619 38.4261V35.1142C77.7619 34.8568 77.7483 34.6959 77.7211 34.6315C77.6939 34.5672 77.6382 34.5115 77.554 34.4644C77.4723 34.4149 77.3609 34.3902 77.2198 34.3902H77.0528V34.2528H79.7372V34.3902H79.5181C79.3721 34.3902 79.2545 34.4162 79.1654 34.4681C79.1011 34.5028 79.0503 34.5622 79.0132 34.6464C78.986 34.7058 78.9723 34.8617 78.9723 35.1142V38.3221C78.9723 38.5796 78.9872 38.7442 79.0169 38.816C79.0466 38.8853 79.1048 38.9372 79.1914 38.9719C79.2533 38.9942 79.403 39.0053 79.6407 39.0053H80.0602C80.3275 39.0053 80.5503 38.9583 80.7285 38.8642C80.9068 38.7702 81.0602 38.6216 81.1889 38.4187C81.3201 38.2157 81.4439 37.9162 81.5602 37.5202H81.7125Z" fill="#4D57A7"/>
<path d="M84.557 39.1501V39.2875H81.9245V39.1501H82.0916C82.2376 39.1501 82.3552 39.1241 82.4443 39.0721C82.5087 39.0375 82.5582 38.9781 82.5928 38.8939C82.6201 38.8345 82.6337 38.6786 82.6337 38.4261V35.1142C82.6337 34.8568 82.6201 34.6959 82.5928 34.6315C82.5656 34.5672 82.5099 34.5115 82.4258 34.4644C82.3441 34.4149 82.2327 34.3902 82.0916 34.3902H81.9245V34.2528H84.557V34.3902H84.3899C84.2438 34.3902 84.1263 34.4162 84.0372 34.4681C83.9728 34.5028 83.9221 34.5622 83.8849 34.6464C83.8577 34.7058 83.8441 34.8617 83.8441 35.1142V38.4261C83.8441 38.6835 83.8577 38.8444 83.8849 38.9088C83.9146 38.9731 83.9703 39.0301 84.052 39.0796C84.1362 39.1266 84.2488 39.1501 84.3899 39.1501H84.557Z" fill="#4D57A7"/>
<path d="M89.1651 34.2528L86.2059 39.0053H87.1638C87.6168 39.0053 87.9336 38.9768 88.1143 38.9199C88.4089 38.8308 88.6626 38.6674 88.8755 38.4298C89.0884 38.1897 89.2356 37.8692 89.3173 37.4682H89.4621L89.2579 39.2875H84.6465L87.6094 34.5276H86.8631C86.5735 34.5276 86.3829 34.5362 86.2913 34.5535C86.118 34.5857 85.9547 34.6501 85.8012 34.7466C85.6502 34.8407 85.524 34.9669 85.4225 35.1253C85.3235 35.2837 85.2455 35.4842 85.1886 35.7268H85.0512L85.1886 34.2528H89.1651Z" fill="#4D57A7"/>
<path d="M92.548 37.8543H90.7695L90.5578 38.3444C90.4885 38.5078 90.4539 38.6427 90.4539 38.7491C90.4539 38.8902 90.5108 38.9942 90.6247 39.061C90.6915 39.1006 90.8561 39.1303 91.1185 39.1501V39.2875H89.444V39.1501C89.6247 39.1229 89.7732 39.0486 89.8895 38.9273C90.0058 38.8036 90.1494 38.5499 90.3202 38.1662L92.121 34.1488H92.1915L94.0071 38.2776C94.1804 38.6687 94.3227 38.915 94.4341 39.0165C94.5183 39.0932 94.6371 39.1377 94.7905 39.1501V39.2875H92.3549V39.1501H92.4551C92.6507 39.1501 92.7881 39.1229 92.8673 39.0684C92.9217 39.0288 92.9489 38.9719 92.9489 38.8976C92.9489 38.8531 92.9415 38.8073 92.9267 38.7603C92.9217 38.738 92.8846 38.6452 92.8153 38.4818L92.548 37.8543ZM92.4217 37.5796L91.6717 35.8456L90.8994 37.5796H92.4217Z" fill="#4D57A7"/>
</svg>
