<svg width="1366" height="770" viewBox="0 0 1366 770" fill="none" xmlns="http://www.w3.org/2000/svg">
<rect width="1366" height="768" fill="#8A95D3"/>
<path d="M195 717C195 745.167 168.361 768 135.5 768C102.639 768 76 745.167 76 717C76 688.833 102.639 666 135.5 666C168.361 666 195 688.833 195 717ZM90.875 717C90.875 738.125 110.854 755.25 135.5 755.25C160.146 755.25 180.125 738.125 180.125 717C180.125 695.875 160.146 678.75 135.5 678.75C110.854 678.75 90.875 695.875 90.875 717Z" fill="url(#paint0_linear)"/>
<path d="M1252 186.5C1252 214.39 1227.38 237 1197 237C1166.62 237 1142 214.39 1142 186.5C1142 158.61 1166.62 136 1197 136C1227.38 136 1252 158.61 1252 186.5ZM1155.75 186.5C1155.75 207.418 1174.22 224.375 1197 224.375C1219.78 224.375 1238.25 207.418 1238.25 186.5C1238.25 165.582 1219.78 148.625 1197 148.625C1174.22 148.625 1155.75 165.582 1155.75 186.5Z" fill="url(#paint1_linear)"/>
<path d="M0 0V115V131.5C0 131.5 60.0404 95.1852 102 80C210.93 40.5782 292.972 118.786 398.5 71C531 11 630.629 202.188 767.5 148C849.617 115.49 938.5 0 938.5 0H0Z" fill="#9EA7DE"/>
<path fill-rule="evenodd" clip-rule="evenodd" d="M92.7925 617.5L82.8962 600L73 617.5H92.7925ZM90.7903 616.217L82.8956 602.333L75.0008 616.217H90.7903Z" fill="white"/>
<path d="M469 672.973C469 672.973 472.615 666.035 476.766 666.014C480.942 665.992 480.449 673.225 484.617 672.973C488.526 672.737 487.639 666.366 491.539 666.014C495.843 665.625 495.61 673.518 499.896 672.973C503.647 672.496 502.542 666.32 506.312 666.014C510.401 665.682 509.825 673.356 513.909 672.973C517.631 672.624 516.431 666.343 520.156 666.014C524.219 665.655 523.593 673.139 527.669 672.973C530.675 672.851 534 668.765 534 668.765" stroke="white" stroke-width="3"/>
<path d="M1114 117C1114 124.18 1120.27 130 1128 130C1135.73 130 1142 124.18 1142 117C1142 109.82 1135.73 104 1128 104C1120.27 104 1114 109.82 1114 117ZM1137.8 117C1137.8 122.026 1133.41 126.1 1128 126.1C1122.59 126.1 1118.2 122.026 1118.2 117C1118.2 111.974 1122.59 107.9 1128 107.9C1133.41 107.9 1137.8 111.974 1137.8 117Z" fill="white"/>
<path d="M424 128C424 132.418 427.806 136 432.5 136C437.194 136 441 132.418 441 128C441 123.582 437.194 120 432.5 120C427.806 120 424 123.582 424 128ZM438.025 128C438.025 130.872 435.551 133.2 432.5 133.2C429.449 133.2 426.975 130.872 426.975 128C426.975 125.128 429.449 122.8 432.5 122.8C435.551 122.8 438.025 125.128 438.025 128Z" fill="white"/>
<rect width="3.15203" height="25.1739" rx="1.57602" transform="matrix(-0.590464 -0.807064 0.720534 -0.693419 329.861 686)" fill="white"/>
<rect width="3.15203" height="25.1739" rx="1.57602" transform="matrix(-0.590464 0.807064 -0.720534 -0.693419 348 683.456)" fill="white"/>
<path opacity="0.7" d="M703.938 137.181C658.572 102.488 623 0 623 0H990C990 0 955.5 51.5 946.133 107.73C930.477 201.715 744.704 168.357 703.938 137.181Z" fill="#96A1E1"/>
<ellipse cx="1292.44" cy="29.5051" rx="2.44444" ry="2.44948" fill="#E5E5E5"/>
<ellipse cx="1292.44" cy="29.5051" rx="2.44444" ry="2.44948" fill="white"/>
<ellipse cx="1305.48" cy="29.5051" rx="2.44444" ry="2.44948" fill="#E5E5E5"/>
<ellipse cx="1305.48" cy="29.5051" rx="2.44444" ry="2.44948" fill="white"/>
<ellipse cx="1318.52" cy="29.5051" rx="2.44444" ry="2.44948" fill="#E5E5E5"/>
<ellipse cx="1318.52" cy="29.5051" rx="2.44444" ry="2.44948" fill="white"/>
<ellipse cx="1331.56" cy="29.5051" rx="2.44444" ry="2.44948" fill="#E5E5E5"/>
<ellipse cx="1331.56" cy="29.5051" rx="2.44444" ry="2.44948" fill="white"/>
<ellipse cx="1292.44" cy="39.303" rx="2.44444" ry="2.44948" fill="#E5E5E5"/>
<ellipse cx="1292.44" cy="39.303" rx="2.44444" ry="2.44948" fill="white"/>
<ellipse cx="1305.48" cy="39.303" rx="2.44444" ry="2.44948" fill="#E5E5E5"/>
<ellipse cx="1305.48" cy="39.303" rx="2.44444" ry="2.44948" fill="white"/>
<ellipse cx="1318.52" cy="39.303" rx="2.44444" ry="2.44948" fill="#E5E5E5"/>
<ellipse cx="1318.52" cy="39.303" rx="2.44444" ry="2.44948" fill="white"/>
<ellipse cx="1331.56" cy="39.303" rx="2.44444" ry="2.44948" fill="#E5E5E5"/>
<ellipse cx="1331.56" cy="39.303" rx="2.44444" ry="2.44948" fill="white"/>
<ellipse cx="1292.44" cy="49.1008" rx="2.44444" ry="2.44948" fill="#E5E5E5"/>
<ellipse cx="1292.44" cy="49.1008" rx="2.44444" ry="2.44948" fill="white"/>
<ellipse cx="1305.48" cy="49.1008" rx="2.44444" ry="2.44948" fill="#E5E5E5"/>
<ellipse cx="1305.48" cy="49.1008" rx="2.44444" ry="2.44948" fill="white"/>
<ellipse cx="1318.52" cy="49.1008" rx="2.44444" ry="2.44948" fill="#E5E5E5"/>
<ellipse cx="1318.52" cy="49.1008" rx="2.44444" ry="2.44948" fill="white"/>
<ellipse cx="1331.56" cy="49.1008" rx="2.44444" ry="2.44948" fill="#E5E5E5"/>
<ellipse cx="1331.56" cy="49.1008" rx="2.44444" ry="2.44948" fill="white"/>
<ellipse cx="1292.44" cy="58.8989" rx="2.44444" ry="2.44948" fill="#E5E5E5"/>
<ellipse cx="1292.44" cy="58.8989" rx="2.44444" ry="2.44948" fill="white"/>
<ellipse cx="1305.48" cy="58.8989" rx="2.44444" ry="2.44948" fill="#E5E5E5"/>
<ellipse cx="1305.48" cy="58.8989" rx="2.44444" ry="2.44948" fill="white"/>
<ellipse cx="1318.52" cy="58.8989" rx="2.44444" ry="2.44948" fill="#E5E5E5"/>
<ellipse cx="1318.52" cy="58.8989" rx="2.44444" ry="2.44948" fill="white"/>
<ellipse cx="1331.56" cy="58.8989" rx="2.44444" ry="2.44948" fill="#E5E5E5"/>
<ellipse cx="1331.56" cy="58.8989" rx="2.44444" ry="2.44948" fill="white"/>
<ellipse cx="1292.44" cy="68.6968" rx="2.44444" ry="2.44948" fill="#E5E5E5"/>
<ellipse cx="1292.44" cy="68.6968" rx="2.44444" ry="2.44948" fill="white"/>
<ellipse cx="1305.48" cy="68.6968" rx="2.44444" ry="2.44948" fill="#E5E5E5"/>
<ellipse cx="1305.48" cy="68.6968" rx="2.44444" ry="2.44948" fill="white"/>
<ellipse cx="1318.52" cy="68.6968" rx="2.44444" ry="2.44948" fill="#E5E5E5"/>
<ellipse cx="1318.52" cy="68.6968" rx="2.44444" ry="2.44948" fill="white"/>
<ellipse cx="1331.56" cy="68.6968" rx="2.44444" ry="2.44948" fill="#E5E5E5"/>
<ellipse cx="1331.56" cy="68.6968" rx="2.44444" ry="2.44948" fill="white"/>
<defs>
<linearGradient id="paint0_linear" x1="135.5" y1="666" x2="138.49" y2="748.589" gradientUnits="userSpaceOnUse">
<stop stop-color="#ACB6F1"/>
<stop offset="1" stop-color="#C4C4C4" stop-opacity="0"/>
</linearGradient>
<linearGradient id="paint1_linear" x1="1197" y1="136" x2="1200.17" y2="217.764" gradientUnits="userSpaceOnUse">
<stop stop-color="#ACB6F1"/>
<stop offset="1" stop-color="#C4C4C4" stop-opacity="0"/>
</linearGradient>
</defs>
</svg>
